# xmcd
#
# Track frame offsets:
#	150
#	16272
#	32677
#	46297
#	59952
#	70897
#	81827
#	95635
#	111640
#	131020
#	139332
#	154115
#	163965
#	177107
#
# Disc length: 2493 seconds
#
# Revision: 0
# Processed by: cddbd v1.5.2PL0 Copyright (c) Steve Scherf et al.
# Submitted via: EasyCDDAExtractor 2010.6.0.0
#
DISCID=ce09bb0e
DTITLE=The Righteous Brothers - The Great
DYEAR=1900
DGENRE=
TTITLE0=Unchained Melody
TTITLE1=You've Lost That Loving Feeling
TTITLE2=You're My Soul And Inspiration
TTITLE3=He
TTITLE4=Go Ahead and Cry
TTITLE5=Melancholy Music Man
TTITLE6=On This Side Of Goodbye
TTITLE7=Stranded In The Middle Of No Place
TTITLE8=Peace Brother Peace
TTITLE9=Turn On Your Love Light
TTITLE10=Brown Eyed Woman
TTITLE11=I'm Leaving It Up To You
TTITLE12=Bring It On Home To Me
TTITLE13=Midnight Hour
EXTD=
EXTT0=
EXTT1=
EXTT2=
EXTT3=
EXTT4=
EXTT5=
EXTT6=
EXTT7=
EXTT8=
EXTT9=
EXTT10=
EXTT11=
EXTT12=
EXTT13=
PLAYORDER=
